<?xml version="1.0" encoding="UTF-8"?>
<svg id="Ebene_2" data-name="Ebene 2" xmlns="http://www.w3.org/2000/svg" viewBox="0 0 1876.125 1205.707">
  <defs>
    <style>
      .cls-1 {
        fill: #fff;
      }
    </style>
  </defs>
  <g id="Block">
    <g id="ONE30">
      <path class="cls-1" d="m346.985,1124.552c0,56.872-29.395,80.516-87.545,80.516H87.545c-54.955,0-87.545-22.366-87.545-80.516v-348.902c0-54.316,29.395-81.155,87.545-81.155h171.895c55.594,0,87.545,23.005,87.545,81.155v348.902Zm-131.637-36.424v-276.054h-83.711v276.054h83.711Z"/>
      <path class="cls-1" d="m774.481,1205.068h-109.911l-134.193-233.879v233.879h-131.637v-510.573h115.023l129.081,223.016v-223.016h131.637v510.573Z"/>
      <path class="cls-1" d="m1159.661,1205.707h-329.085v-510.573c109.409-.107,218.818-.213,328.227-.32v116.301c-65.53.32-131.06.639-196.589.959v77.96h164.866v116.301h-164.866v82.433h197.448v116.94Z"/>
      <path class="cls-1" d="m1480.867,1122.316c0,51.76-33.868,83.072-90.74,83.072h-231.323v-116.94h190.426v-82.433h-116.301v-116.301h116.301v-78.599h-190.426v-116.301h231.962c58.15,0,90.101,23.005,90.101,83.711v103.52c0,38.341-17.253,56.233-44.092,65.819v1.278c26.2,4.473,44.092,21.727,44.092,60.067v113.106Z"/>
      <path class="cls-1" d="m1876.119,1121.996c0,60.706-31.951,83.072-90.101,83.072h-167.422c-58.15,0-89.462-22.366-89.462-83.072v-343.79c0-60.706,31.312-83.711,89.462-83.711h167.422c58.15,0,90.101,23.005,90.101,83.711v343.79Zm-131.637-33.868v-276.054h-83.711v276.054h83.711Z"/>
    </g>
    <g id="ROAD">
      <path class="cls-1" d="m413.026,623.817h-160.833v-210.021h-91.348v210.021H.012V0h302.93c71.048,0,110.085,28.107,110.085,102.278v160.053c0,46.845-21.861,69.487-57.775,80.417v1.562c35.133,4.685,57.775,26.545,57.775,73.39v206.118Zm-160.833-352.117v-128.823h-91.348v128.823h91.348Z"/>
      <path class="cls-1" d="m900.2,525.442c0,69.486-35.914,98.375-106.962,98.375h-210.021c-67.144,0-106.962-27.327-106.962-98.375V99.155c0-66.363,35.914-99.155,106.962-99.155h210.021c67.925,0,106.962,28.107,106.962,99.155v426.288Zm-160.833-44.502V143.657h-102.278v337.283h102.278Z"/>
      <path class="cls-1" d="m1388.16,623.817h-160.833v-167.861h-103.059v167.861h-160.834V102.278c0-74.171,39.037-102.278,110.085-102.278h314.641v623.817Zm-160.833-309.176v-171.764h-103.059v171.764h103.059Z"/>
      <path class="cls-1" d="m1876.125,525.442c0,67.144-38.256,98.375-107.742,98.375h-316.983V0h316.983c66.363,0,107.742,27.326,107.742,99.155v426.288Zm-160.833-44.502V143.657h-103.059v337.283h103.059Z"/>
    </g>
  </g>
</svg>