<?xml version="1.0" encoding="UTF-8"?>
<svg id="Ebene_2" data-name="Ebene 2" xmlns="http://www.w3.org/2000/svg" viewBox="0 0 3256.799 480.94">
  <defs>
    <style>
      .cls-1 {
        fill: #fff;
      }
    </style>
  </defs>
  <g id="Spread">
    <g id="ONE30">
      <path class="cls-1" d="m1818.215,404.591c0,53.505-27.654,75.748-82.361,75.748h-161.716c-51.701,0-82.361-21.041-82.361-75.748V76.349c0-51.1,27.654-76.349,82.361-76.349h161.716c52.302,0,82.361,21.642,82.361,76.349v328.241Zm-123.842-54.587v-219.067c0-11.223-9.098-20.321-20.321-20.321h-38.113c-11.223,0-20.321,9.098-20.321,20.321v219.067c0,11.223,9.098,20.321,20.321,20.321h38.113c11.223,0,20.321-9.098,20.321-20.321Z"/>
      <path class="cls-1" d="m2220.396,480.339h-103.402l-126.247-220.03v220.03h-123.842V0h108.211l121.437,209.81V0h123.842v480.339Z"/>
      <path class="cls-1" d="m2582.768,480.94h-309.598V.601c102.93-.1,205.86-.2,308.79-.301v109.414c-61.649.301-123.299.601-184.948.902v73.343h155.103v109.414h-155.103v77.552h185.756v110.015Z"/>
      <path class="cls-1" d="m2884.952,402.487c0,48.695-31.862,78.153-85.367,78.153h-217.625v-110.015h179.15v-77.552h-109.414v-109.414h109.414v-73.945h-179.15V.301h218.226c54.707,0,84.766,21.642,84.766,78.754v97.39c0,36.07-16.232,52.903-41.481,61.921v1.202c24.648,4.208,41.481,20.44,41.481,56.51v106.408Z"/>
      <path class="cls-1" d="m3256.799,402.186c0,57.112-30.059,78.153-84.766,78.153h-157.508c-54.707,0-84.164-21.041-84.164-78.153V78.754c0-57.112,29.458-78.754,84.164-78.754h157.508c54.707,0,84.766,21.642,84.766,78.754v323.432Zm-123.842-31.862V110.616h-78.754v259.708h78.754Z"/>
    </g>
    <g id="ROAD">
      <path class="cls-1" d="m317.505,479.56h-123.641v-161.454h-70.224v161.454H0V0h232.878c54.618,0,84.628,21.607,84.628,78.626v123.041c0,36.012-16.806,53.418-44.415,61.821v1.2c27.009,3.601,44.415,20.407,44.415,56.419v158.453Zm-123.641-270.69v-99.033h-70.224v99.033h70.224Z"/>
      <path class="cls-1" d="m692.021,403.934c0,53.418-27.609,75.626-82.227,75.626h-161.454c-51.617,0-82.227-21.007-82.227-75.626V76.225c0-51.017,27.609-76.225,82.227-76.225h161.454c52.217,0,82.227,21.607,82.227,76.225v327.709Zm-123.641-34.211V110.437h-78.626v259.286h78.626Z"/>
      <path class="cls-1" d="m1067.14,479.56h-123.641v-129.043h-79.226v129.043h-123.641V78.626c0-57.019,30.01-78.626,84.628-78.626h241.88v479.56Zm-123.641-237.68V109.836h-79.226v132.044h79.226Z"/>
      <path class="cls-1" d="m1442.265,403.934c0,51.617-29.409,75.626-82.827,75.626h-243.681V0h243.681c51.017,0,82.827,21.007,82.827,76.225v327.709Zm-123.641-55.894v-215.921c0-11.975-9.708-21.683-21.683-21.683h-57.544v259.286h57.544c11.975,0,21.683-9.708,21.683-21.683Z"/>
    </g>
  </g>
</svg>